<svg width="247" height="101" viewBox="0 0 247 101" fill="none" xmlns="http://www.w3.org/2000/svg">
<path d="M19.74 43.5C22.34 43.5 24.64 43.92 26.64 44.76C28.68 45.56 30.4 46.72 31.8 48.24C33.24 49.72 34.34 51.48 35.1 53.52C35.86 55.52 36.24 57.74 36.24 60.18C36.24 63.22 35.6 65.92 34.32 68.28C33.08 70.6 31.36 72.42 29.16 73.74C26.96 75.06 24.4 75.72 21.48 75.72C20.24 75.72 19.06 75.56 17.94 75.24C16.86 74.92 15.86 74.46 14.94 73.86C14.06 73.26 13.32 72.52 12.72 71.64H12.54V88.02H3.24V60.18C3.24 56.78 3.92 53.84 5.28 51.36C6.64 48.88 8.56 46.96 11.04 45.6C13.52 44.2 16.42 43.5 19.74 43.5ZM19.74 51.54C18.3 51.54 17.04 51.9 15.96 52.62C14.92 53.3 14.12 54.26 13.56 55.5C13 56.7 12.72 58.06 12.72 59.58C12.72 61.1 13 62.46 13.56 63.66C14.12 64.86 14.92 65.82 15.96 66.54C17.04 67.22 18.3 67.56 19.74 67.56C21.18 67.56 22.42 67.22 23.46 66.54C24.5 65.82 25.3 64.86 25.86 63.66C26.46 62.46 26.76 61.1 26.76 59.58C26.76 58.06 26.46 56.7 25.86 55.5C25.3 54.26 24.5 53.3 23.46 52.62C22.42 51.9 21.18 51.54 19.74 51.54ZM73.4995 75V57.3C73.4995 54.74 74.1195 52.42 75.3595 50.34C76.5995 48.26 78.3595 46.6 80.6395 45.36C82.9595 44.12 85.6995 43.5 88.8595 43.5C92.0595 43.5 94.7795 44.12 97.0195 45.36C99.2995 46.6 101.04 48.26 102.24 50.34C103.44 52.42 104.04 54.74 104.04 57.3V75H94.7395V57.54C94.7395 56.46 94.4795 55.48 93.9595 54.6C93.4395 53.68 92.7195 52.96 91.7995 52.44C90.9195 51.88 89.9195 51.6 88.7995 51.6C87.6395 51.6 86.5995 51.88 85.6795 52.44C84.7995 52.96 84.0995 53.68 83.5795 54.6C83.0595 55.48 82.7995 56.46 82.7995 57.54V75H73.4995ZM122.28 75C119.44 75 117.22 74.2 115.62 72.6C114.02 70.96 113.22 68.76 113.22 66V36.72H122.58V65.46C122.58 65.94 122.74 66.36 123.06 66.72C123.42 67.04 123.84 67.2 124.32 67.2H131.04V75H122.28ZM108.18 51.84V44.22H131.04V51.84H108.18ZM150.908 75.72C147.748 75.72 144.908 75.02 142.388 73.62C139.868 72.22 137.868 70.3 136.388 67.86C134.948 65.42 134.228 62.68 134.228 59.64C134.228 56.56 134.948 53.82 136.388 51.42C137.868 48.98 139.868 47.06 142.388 45.66C144.908 44.22 147.748 43.5 150.908 43.5C154.068 43.5 156.888 44.22 159.368 45.66C161.888 47.06 163.868 48.98 165.308 51.42C166.788 53.82 167.528 56.56 167.528 59.64C167.528 62.68 166.788 65.42 165.308 67.86C163.868 70.3 161.888 72.22 159.368 73.62C156.848 75.02 154.028 75.72 150.908 75.72ZM150.908 67.62C152.388 67.62 153.668 67.26 154.748 66.54C155.828 65.82 156.668 64.86 157.268 63.66C157.868 62.46 158.168 61.1 158.168 59.58C158.168 58.1 157.868 56.76 157.268 55.56C156.668 54.36 155.828 53.4 154.748 52.68C153.668 51.96 152.388 51.6 150.908 51.6C149.428 51.6 148.128 51.96 147.008 52.68C145.928 53.4 145.088 54.36 144.488 55.56C143.888 56.76 143.588 58.1 143.588 59.58C143.588 61.1 143.888 62.46 144.488 63.66C145.088 64.86 145.928 65.82 147.008 66.54C148.128 67.26 149.428 67.62 150.908 67.62ZM169.57 75L183.19 37.86C183.87 36.02 184.99 34.64 186.55 33.72C188.11 32.76 189.87 32.28 191.83 32.28C193.79 32.28 195.55 32.74 197.11 33.66C198.67 34.54 199.79 35.92 200.47 37.8L214.15 75H203.29L200.65 66.9H182.83L180.07 75H169.57ZM185.41 58.56H198.07L192.73 41.82C192.65 41.58 192.53 41.42 192.37 41.34C192.25 41.22 192.09 41.16 191.89 41.16C191.69 41.16 191.51 41.22 191.35 41.34C191.23 41.46 191.15 41.62 191.11 41.82L185.41 58.56ZM217.64 75V31.2H226.94V75H217.64ZM233.812 75V31.2H243.112V75H233.812Z" fill="#021B2B"/>
<rect x="71.9497" y="41" width="2" height="7" rx="1" transform="rotate(45 71.9497 41)" fill="#FD9BB2"/>
<rect x="66.5" y="36" width="2" height="7" rx="1" transform="rotate(30 66.5 36)" fill="#FD9BB2"/>
<rect x="58.8118" y="33" width="2" height="7" rx="1" transform="rotate(15 58.8118 33)" fill="#FD9BB2"/>
<rect x="51" y="33" width="2" height="7" rx="1" fill="#FD9BB2"/>
<ellipse cx="55" cy="83.5" rx="9" ry="2.5" fill="#FD9BB2"/>
<path d="M54.5 42.9375C50.2166 42.9424 46.11 44.6461 43.0812 47.6749C40.0523 50.7038 38.3486 54.8103 38.3438 59.0938C38.3438 72.9184 53.0313 83.3593 53.6573 83.7963C53.9043 83.9693 54.1985 84.0621 54.5 84.0621C54.8015 84.0621 55.0957 83.9693 55.3427 83.7963C55.9688 83.3593 70.6562 72.9184 70.6562 59.0938C70.6514 54.8103 68.9477 50.7038 65.9188 47.6749C62.89 44.6461 58.7834 42.9424 54.5 42.9375ZM54.5 53.2188C55.662 53.2188 56.7978 53.5633 57.764 54.2089C58.7301 54.8544 59.4831 55.772 59.9278 56.8455C60.3725 57.919 60.4888 59.1003 60.2621 60.2399C60.0354 61.3795 59.4759 62.4264 58.6543 63.248C57.8326 64.0696 56.7858 64.6292 55.6462 64.8559C54.5065 65.0826 53.3253 64.9662 52.2517 64.5215C51.1782 64.0769 50.2607 63.3239 49.6151 62.3577C48.9696 61.3916 48.625 60.2557 48.625 59.0938C48.625 57.5356 49.244 56.0413 50.3457 54.9395C51.4475 53.8377 52.9419 53.2188 54.5 53.2188Z" fill="url(#paint0_linear_68_3)"/>
<defs>
<linearGradient id="paint0_linear_68_3" x1="54.5" y1="42.9375" x2="54.5" y2="84.0621" gradientUnits="userSpaceOnUse">
<stop stop-color="#FF0841"/>
<stop offset="1" stop-color="#B10C43"/>
</linearGradient>
</defs>
</svg>
