<svg width="32" height="48" viewBox="0 0 32 48" fill="none" xmlns="http://www.w3.org/2000/svg">
<g clip-path="url(#clip0_71_20)">
<ellipse cx="15.1531" cy="45.7825" rx="8.50048" ry="2.21752" fill="#FD9BB2"/>
<path d="M14.7834 8.82388C10.864 8.82834 7.10635 10.3901 4.33488 13.1665C1.56341 15.943 0.00444634 19.7074 0 23.6339C0 36.3065 13.4395 45.8775 14.0124 46.278C14.2383 46.4366 14.5075 46.5217 14.7834 46.5217C15.0593 46.5217 15.3286 46.4366 15.5545 46.278C16.1274 45.8775 29.5669 36.3065 29.5669 23.6339C29.5624 19.7074 28.0035 15.943 25.232 13.1665C22.4605 10.3901 18.7029 8.82834 14.7834 8.82388ZM14.7834 18.2484C15.8467 18.2484 16.886 18.5643 17.7701 19.156C18.6541 19.7478 19.3432 20.5889 19.75 21.573C20.1569 22.557 20.2634 23.6399 20.0559 24.6845C19.8485 25.7292 19.3365 26.6888 18.5847 27.442C17.8329 28.1951 16.875 28.7081 15.8322 28.9158C14.7894 29.1236 13.7085 29.017 12.7262 28.6094C11.7439 28.2018 10.9043 27.5115 10.3136 26.6259C9.72293 25.7402 9.40765 24.699 9.40765 23.6339C9.40765 22.2056 9.97402 20.8358 10.9822 19.8258C11.9903 18.8158 13.3577 18.2484 14.7834 18.2484Z" fill="url(#paint0_linear_71_20)"/>
<rect x="30.501" y="7.2608" width="1.8152" height="6.35321" rx="0.907601" transform="rotate(45 30.501 7.2608)" fill="#FD9BB2"/>
<rect x="25.5546" y="2.72281" width="1.8152" height="6.35321" rx="0.907601" transform="rotate(30 25.5546 2.72281)" fill="#FD9BB2"/>
<rect x="18.5769" width="1.8152" height="6.35321" rx="0.907601" transform="rotate(15 18.5769 0)" fill="#FD9BB2"/>
<rect x="11.4868" width="1.8152" height="6.35321" rx="0.907601" fill="#FD9BB2"/>
</g>
<defs>
<linearGradient id="paint0_linear_71_20" x1="14.7834" y1="8.82388" x2="14.7834" y2="46.5217" gradientUnits="userSpaceOnUse">
<stop stop-color="#FF0841"/>
<stop offset="1" stop-color="#B10C43"/>
</linearGradient>
<clipPath id="clip0_71_20">
<rect width="32" height="48" fill="white"/>
</clipPath>
</defs>
</svg>
